<svg xmlns="http://www.w3.org/2000/svg" fill="none" viewbox="0 0 163 297">
  <path fill="currentColor" fill-rule="evenodd" d="M105 0c8.5 0 12 49 12 49 .5 3.6-4 13-8.2 21.8-3.9 8-7.6 15.9-7.3 18.7 0 .7 2.8-2.8 6.2-7.1 5.1-6.7 11.7-15.1 12-12.4 2 20.2 2.5 37.9 2.8 64 0 0-21.4 10.3-38.5 13.4C84 94.8 86.9 67 97.5 22.5c2.5-11.5-2-3.5-2.5-2l-.2.6C92.5 26.5 76 66.7 75 148.3c-15 .6-34-2.4-34.5-3.8-.4-1.3 1-27.5 1.4-34h.6c5.6.3 10 1.8 12.5 2.7 1.8.6 2.7 1 2.5.3-1.1-3.9-4.2-6.8-7.2-9.6a23 23 0 0 1-5.8-6.9c-1-2.3 2.7-13.7 4.2-18l2-6c5-16 7.9-25.3 17.3-40.5 0 0 8 9.7 9.5 8 .7-.8.2-3.8-.4-7.1-.7-4.3-1.6-9.1-.1-10.7C86.1 13.1 99.6 0 105 0ZM62 33.4a192.8 192.8 0 0 0-19.8 46.9 58.8 58.8 0 0 1-21.7 3.2c-5.9-.9-11.5-4-11.5-10C9 65 21.8 50.4 35.5 42A86 86 0 0 1 62 33.4Zm64 67.1c-.8-23.8-2.8-35.7-5-47.4 11.2 11.7 42 46.3 42 70.9 0 16.8-4 26-7.6 31a93 93 0 0 1-24.9 17 191.5 191.5 0 0 1-91.3 10.6l-1.5-.3c-5.4-1-10-1.8-15.2-3.8-10.9-6.5-23-15.4-22-30 2-30.4 34.2-38.2 35.5-38.5l-1.5 21s-6 1-5 11c1 9.9 19.5 11.5 31 12.5h.5c11.5 1 32-2.5 45-6.5s28.5-12 29-21.5c.7-13.7-.5-18.5-9-26Zm-38.6 88.9c11.9-1.5 23.4-4.5 36-9-2.2 10.4-17.2 20-34.4 25.7l-1.6-16.7Zm-9.7.9c-11.3.7-23.2.1-37.2-1.6.5 5 5.5 21.2 7 21.6a71.5 71.5 0 0 0 32-1.5c-1-7.8-1.5-14.2-1.8-18.5ZM23 185S4 195 6 217.5C8 238.4 37.1 248 55.5 248l.5.1c23-1.1 52.9-13.3 62.7-17.3l3.2-1.3c15.3-8 37.1-20.7 37.1-39.5 0-15.5-8.5-24-8.5-24v-.2a81 81 0 0 1-17.5 11.7c.6 9.8-5.4 16-13 20.8-16.5 10.4-41.5 20-60 19.2-18-.7-20.4-4.5-22.8-8.4l-.2-.3c-2.5-4 .5-9 .5-9l-4-12.6L23 185Zm95.5 51.6c-22.8 9.3-38 14.1-58 15.8l1 1.6c9.7 16.5 18.6 17.8 23.6 18.5 2 .3 3.3.5 3.9 1.5 1.3 2.3 3.3 8.6 5 13.7l2 6.3c1.5 4 8 2.5 8.5 0 .3-1.5-.8-8.8-1.8-14.9-.6-4-1.2-7.6-1.2-8.6 0-1.6.6-2.1 2.1-3.7 1-1 2.2-2.2 3.9-4.3 5-6 5.8-9 7.2-13.8.6-2 1.2-4.3 2.3-7.2l1.5-4.9ZM23.5 74a3.5 3.5 0 1 0 0-7 3.5 3.5 0 0 0 0 7Z" clip-rule="evenodd"/>
</svg>
